<svg xmlns="http://www.w3.org/2000/svg" viewBox="0 0 19.15 26.84"><defs><style>.cls-1{fill:#4d443c;}.cls-2{fill:#fff;}.cls-2,.cls-3{fill-rule:evenodd;}.cls-3{fill:#a6a19d;}</style></defs><title>27_2</title><g id="Layer_2" data-name="Layer 2"><g id="Layer_1-2" data-name="Layer 1"><path class="cls-1" d="M9.87,26.79a.29.29,0,1,1,0-.57h4.74a.29.29,0,1,1,0,.57Z"/><path class="cls-1" d="M11.43,25.43a.29.29,0,0,1,0-.57H13a.29.29,0,1,1,0,.57Z"/><path class="cls-1" d="M10.51,26.38a.29.29,0,1,1,0-.57h7.2a.29.29,0,1,1,0,.57Z"/><path class="cls-2" d="M9.58.29a9.29,9.29,0,0,1,9.29,9.29c0,5.13-7.49,17-9.29,17S.29,14.71.29,9.58A9.29,9.29,0,0,1,9.58.29"/><path class="cls-1" d="M15.94,3.21A9,9,0,0,0,.57,9.58c0,2.25,1.48,5.84,3.28,9.12,2.2,4,4.82,7.57,5.72,7.57s3.52-3.55,5.72-7.57c1.8-3.29,3.28-6.88,3.28-9.12a9,9,0,0,0-2.64-6.37M9.58,0a9.58,9.58,0,0,1,9.58,9.58c0,2.35-1.51,6-3.35,9.39-2.29,4.18-5.13,7.87-6.22,7.87S5.64,23.15,3.35,19C1.51,15.61,0,11.92,0,9.58A9.58,9.58,0,0,1,9.58,0Z"/><path class="cls-1" d="M14.65,4.51a7.17,7.17,0,1,0,2.1,5.07,7.14,7.14,0,0,0-2.1-5.07M9.58,1.84A7.74,7.74,0,1,1,4.1,4.1,7.72,7.72,0,0,1,9.58,1.84Z"/><polygon class="cls-3" points="7.55 9.71 13.9 9.71 13.1 12.09 8.25 12.09 7.55 9.71"/><path class="cls-1" d="M5.25,6.25a.29.29,0,1,1,0-.57H6.43a.29.29,0,0,1,.28.22l1.76,5.9H13L14.1,8.1,14,8c0-.1,0-.12-.25-.18h-6a.29.29,0,1,1,0-.57h6.1c.5.15.51.18.65.52l.09.21a.28.28,0,0,1,0,.21l-1.23,4a.29.29,0,0,1-.28.22H8.25a.29.29,0,0,1-.27-.2L6.22,6.25Z"/><path class="cls-1" d="M9.48,13.29a.5.5,0,0,0-.69,0h0a.5.5,0,1,0,.7,0m-.35-.72a1.07,1.07,0,1,1-.76,1.83h0a1.07,1.07,0,0,1,0-1.51l0,0A1.07,1.07,0,0,1,9.13,12.58Z"/><path class="cls-1" d="M12.86,13.29a.5.5,0,1,0,.15.35.5.5,0,0,0-.15-.35m-.35-.72a1.07,1.07,0,1,1-.76.31A1.07,1.07,0,0,1,12.51,12.58Z"/></g></g></svg>